Coordinates
version=1
nRows=11
nColumns=36
inDegrees=yes

Units are S.I. units (second, meters, Newtons, ...)
If the header above contains a line with 'inDegrees', this indicates whether rotational values are in degrees (yes) or radians (no).

endheader
time	pelvis_tilt	pelvis_list	pelvis_rotation	pelvis_tx	pelvis_ty	pelvis_tz	hip_flexion_r	hip_adduction_r	hip_rotation_r	knee_angle_r	knee_angle_r_beta	ankle_angle_r	subtalar_angle_r	mtp_angle_r	hip_flexion_l	hip_adduction_l	hip_rotation_l	knee_angle_l	knee_angle_l_beta	ankle_angle_l	subtalar_angle_l	mtp_angle_l	lumbar_extension	lumbar_bending	lumbar_rotation	arm_flex_r	arm_add_r	arm_rot_r	elbow_flex_r	pro_sup_r	arm_flex_l	arm_add_l	arm_rot_l	elbow_flex_l	pro_sup_l
      1.93333330	     -1.10916611	      0.06232397	     -0.16557459	     -0.93786246	      1.24541881	     -0.04841625	     -5.66372280	      0.06241462	     -0.30124131	      0.32713197	      0.00570953	      5.33306120	     -7.82807511	     -7.49999987	     -6.62769463	     -2.48904181	     -6.67455355	      0.34608476	      0.00604032	      9.41847925	      7.49733313	     -7.49999987	     -4.17323415	      1.06403925	     -0.36244736	      9.78999884	     -6.98984858	     35.27905071	     34.32966505	     65.97552419	     12.69595106	     -8.38873938	     36.82340735	     29.41643883	     58.03273927
      1.93750000	     -1.11912562	      0.09134905	     -0.23310157	     -0.93682919	      1.24744367	     -0.04679203	     -5.66535153	      0.03121715	     -0.05831246	      0.31794282	      0.00554915	      5.07567543	     -8.26166705	     -7.49999987	     -6.64454561	     -2.45791021	     -6.78858804	      0.34771501	      0.00606877	      9.37587203	      7.56190427	     -7.49999987	     -4.20928136	      1.02500074	     -0.29352798	      9.65293762	     -7.08675377	     35.34492816	     34.61385800	     66.26696404	     12.57181549	     -8.48525264	     36.77283964	     29.68264877	     58.11424444
      1.94166670	     -1.24731567	      0.08923124	     -0.38029935	     -0.93844082	      1.24765382	     -0.04643785	     -5.48514990	      0.03001318	      0.31330914	      0.31787868	      0.00554803	      4.78870981	     -8.85105930	     -7.49999987	     -6.53356584	     -2.46639204	     -7.06288189	      0.35403610	      0.00617910	      9.40457194	      7.78631597	     -7.49999987	     -4.07207442	      1.01783151	     -0.15722468	      9.65462792	     -7.14494402	     35.50099201	     34.57767895	     67.80423783	     12.55759260	     -8.49722717	     36.84421541	     29.61605537	     58.41463079
      1.94583330	     -1.24017145	      0.09198846	     -0.38411508	     -0.93499457	      1.24755334	     -0.04578814	     -5.52014158	      0.04728694	      0.31112018	      0.30812569	      0.00537781	      4.80733052	     -8.83679109	     -7.49999987	     -6.58554633	     -2.49142704	     -6.99620555	      0.35978603	      0.00627945	      9.38177415	      7.82639199	     -7.49999987	     -4.00852855	      1.00478484	     -0.14859335	      9.56013135	     -7.07620763	     35.49271819	     34.57527938	     67.82669586	     12.48062637	     -8.48475235	     36.83481047	     29.61120038	     58.41344089
      1.95000000	     -1.31676850	      0.08718714	     -0.37119720	     -0.93616937	      1.24842648	     -0.04539832	     -5.46316141	      0.07344531	      0.13211168	      0.30384555	      0.00530311	      5.00177381	     -8.43912795	     -7.49999987	     -6.54801194	     -2.52568393	     -6.92587465	      0.35856170	      0.00625808	      9.41551620	      7.81732551	     -7.49999987	     -3.87398002	      0.99407829	     -0.15591868	      9.37663252	     -6.97528427	     34.99581448	     34.52864877	     67.60173655	     12.29560723	     -8.43880726	     36.24712334	     29.71225389	     58.43374955
      1.95416670	     -1.29492463	      0.11973934	     -0.34962591	     -0.93587625	      1.25304305	     -0.04615149	     -5.51206287	      0.04523693	      0.01985003	      0.29356625	      0.00512370	      4.93350730	     -8.16202713	     -7.49999987	     -6.60717818	     -2.49963871	     -6.94592279	      0.35706608	      0.00623198	      9.29592473	      7.90974507	     -7.49999987	     -3.88198931	      0.92535245	     -0.14289469	      9.21706383	     -6.79279453	     34.51266391	     34.29445951	     67.22141664	     12.16195929	     -8.28846922	     35.42773146	     29.64730085	     58.59341780
      1.95833330	     -1.24023794	      0.16240506	     -0.24228864	     -0.93601789	      1.25142264	     -0.04658529	     -5.59272376	      0.00734166	     -0.37471156	      0.28675629	      0.00500484	      4.97895541	     -7.61390889	     -7.49999987	     -6.67501626	     -2.44557823	     -6.98584633	      0.35752409	      0.00623997	      9.26586406	      7.88471889	     -7.49999987	     -3.94692360	      0.84617965	     -0.14916707	      9.11496572	     -6.69485769	     34.17809118	     34.15416616	     66.63480543	     12.12633677	     -8.18224046	     34.70731596	     29.68861031	     58.84182050
      1.96250000	     -1.27198612	      0.20151660	     -0.26953234	     -0.93542471	      1.25032857	     -0.04455969	     -5.56562013	     -0.00636217	     -0.14125768	      0.27837472	      0.00485856	      4.80111641	     -7.73440901	     -7.49999987	     -6.66927765	     -2.40810795	     -7.23779947	      0.35159094	      0.00613642	      9.18620680	      8.10564972	     -7.49999987	     -3.88353952	      0.75457973	     -0.11536455	      9.02856332	     -6.55168051	     34.01868389	     34.07217398	     66.57447659	     12.01587375	     -8.20834288	     34.33608743	     29.74326327	     59.04098838
      1.96666670	     -1.17739668	      0.21977077	     -0.13274510	     -0.93573874	      1.24817171	     -0.04532665	     -5.70125302	     -0.00693339	     -0.47672238	      0.27327876	      0.00476961	      4.84790562	     -7.32696837	     -7.49999987	     -6.76826468	     -2.39143623	     -7.03020708	      0.34685105	      0.00605369	      9.04072329	      7.74164938	     -7.49999987	     -4.02115642	      0.69769731	     -0.24078220	      8.95015073	     -6.45049760	     33.72576273	     34.14708016	     66.21618373	     11.97133532	     -8.24731281	     33.91637973	     29.92785174	     59.20318731
      1.97083330	     -1.25911174	      0.23906316	     -0.18032495	     -0.93609479	      1.24648407	     -0.04601937	     -5.60642666	     -0.02202644	      0.01523431	      0.26844739	      0.00468529	      4.43880238	     -8.19743124	     -7.49999987	     -6.69530566	     -2.35118223	     -7.21492787	      0.34246165	      0.00597708	      9.03298623	      7.73854648	     -7.49999987	     -3.90111657	      0.64517553	     -0.03120696	      8.76348961	     -6.43132908	     32.92155750	     34.15848453	     71.12753476	     12.11523823	     -8.28262951	     34.41580485	     29.86558258	     60.49075991
      1.97500000	     -1.24541602	      0.25088789	     -0.13138378	     -0.93590027	      1.24856944	     -0.04568835	     -5.61173722	     -0.02983248	     -0.11769009	      0.26528864	      0.00463016	      4.47873529	     -8.05641260	     -7.49999987	     -6.69446593	     -2.33585013	     -7.25458936	      0.33283584	      0.00580908	      8.95196597	      7.71637122	     -7.49999987	     -3.90928564	      0.60374204	     -0.05625269	      8.62886699	     -6.34500076	     32.60429479	     34.27804644	     70.31358485	     12.02071570	     -8.24670819	     33.89560774	     30.04217722	     60.38125222
